<?xml version="1.0" encoding="UTF-8"?>
<svg id="Ebene_2" data-name="Ebene 2" xmlns="http://www.w3.org/2000/svg" viewBox="0 0 28.35 28.35">
  <g id="Ebene_1-2" data-name="Ebene 1">
    <g>
      <circle cx="14.17" cy="14.17" r="14.17" style="fill: #395824;"/>
      <g>
        <g>
          <path d="M24.37,9.8c-.74-.08-1.07.14-1.43.38h0c-.36-.5-1.06-.77-1.65-.78-.57-.01-.91.06-1.55.34-.5-.47-1.22-.74-1.92-.7-.71.04-1.41.4-1.85.95-.28-.03-.89-.07-1.26.11-.12.06-.22.14-.32.25-.15.16-.18.38-.09.58.09.2.28.32.49.32h0c.64,0,1.76,0,2.74-.01.85,0,1.65,0,2,0,.78,0,1.13.2,1.29.36.16.16.17.34.17.37,0,0,0,0,0,.01h0c0,.06-.03.09-.06.1-.02.01-.07.03-.12,0-.04-.03-.13-.07-.43-.18-.27-.1-.55-.15-.84-.15h-2.04c-.22,0-.4.09-.5.25-.09.16-.09.36.01.55.01.03.03.05.05.07.33.41.84.38.95.37h1.25s.09,0,.13,0c.26.03.49.09.58.17.05.03.08.16-.2.59-.02.03-.03.05-.05.07-.23.39-.61.77-.89,1.02-.02-.77-.38-.64-.9-.57-.09,0-.46-.07-.55-.06-.26-.01-.38.17-.25.34.32.21.73.13.74.69-.03.37.07,2.26-.06,2.53-.1.18-.77.22-.75.49.01.18.21.24.4.24.17-.02.59-.13.81-.11.38-.02.85.11,1.18.12.24.02.29-.23.14-.37-.06-.05-.18-.1-.36-.14-.38-.1-.42-.15-.43-.54,0-.14,0-.41.01-.73.03-.43.15-.81.37-1.17.22-.38.49-.58,1.01-.99l.02-.02c.38-.29.65-.46.9-.6.35-.21.62-.37.97-.79v-.02c.07-.06.16-.17.31-.26.19-.11.42-.16.68-.15,0,0,0,0,0,0h.95s0,0,0,0c.32,0,.58-.14.72-.37.09-.15.11-.33.06-.49.13,0,.25,0,.37,0,.14,0,.28,0,.38,0,.43,0,.59-.26.6-.5.03-.59-.81-1.44-1.79-1.54ZM25.68,11.33s-.04.02-.12.02c-.11,0-.24,0-.38,0-.34,0-.77,0-1.06,0-.03,0-.05,0-.08,0-.13,0-.24.11-.24.24,0,.13.1.24.23.24.02,0,.04,0,.07,0,.12,0,.21.05.25.11.03.04.02.1,0,.14-.05.08-.16.13-.3.13h-.95c-.36-.02-.67.05-.94.21-.22.13-.36.29-.42.37h-.01c-.3.37-.52.5-.85.7-.17.1-.38.22-.63.4.07-.11.16-.26.21-.42.14-.43-.05-.65-.18-.74-.22-.16-.56-.23-.81-.26-.06,0-.12-.01-.18-.01,0,0,0,0-.01,0h-1.26s-.02.01-.03.01c0,0-.34.04-.52-.19,0,0,0,0,0,0-.02-.04-.02-.07-.02-.07,0,0,.03-.02.08-.02h2.04c.23,0,.45.04.67.12.28.11.34.14.35.14.19.11.42.12.61,0,.19-.11.3-.3.3-.52,0-.1-.02-.42-.3-.71-.33-.34-.88-.51-1.64-.51-.36,0-1.16,0-2.01,0-.98,0-2.09,0-2.73.01h0s-.04-.01-.05-.03c0-.02,0-.04,0-.06.06-.06.12-.11.18-.14.29-.14.95-.09,1.07-.06.11.03.22-.02.29-.11.35-.49.95-.81,1.57-.85.62-.03,1.25.22,1.66.67.07.08.18.1.28.06.72-.33.99-.38,1.49-.37.52.01,1.17.29,1.36.74.03.06.08.11.15.14.07.02.14.01.2-.02.08-.05.16-.1.23-.15.33-.22.55-.36,1.12-.3.6.06,1.11.46,1.3.83.07.14.07.22.06.23Z" style="fill: #9bb221;"/>
          <path d="M5.1,17.82c-.26-.07-.43-.17-.51-.3-.08-.13-.12-.27-.12-.44v-3.89c0-.12.04-.22.11-.28.07-.06.22-.1.43-.1h1.7c.37,0,.48.02.48.33,0,.13,0,.21.06.28.05.07.12.11.19.11.07,0,.19-.03.24-.09.05-.06.08-.13.07-.23,0-.03,0,0-.01-.18-.02-.18-.01-.35-.01-.51,0-.11,0-.24.02-.41.01-.17.02-.17.02-.26s-.03-.15-.08-.2c-.05-.05-.17-.08-.24-.08-.07,0-.13.02-.17.06-.05.04-.07.1-.07.17,0,.15.03.22-.05.33-.07.11-.24.08-.38.08h-1.65c-.31,0-.51-.06-.59-.18-.08-.12-.12-.32-.12-.61v-1.2c0-.17.05-.29.14-.37.09-.08.29-.12.6-.12h1.75c.09,0,.16.03.23.09.07.06.14.19.21.38.07.2.13.32.17.36.04.04.09.07.14.07.21,0,.31-.13.31-.38,0-.08-.01-.19-.04-.32-.02-.13-.05-.27-.07-.41-.02-.14-.05-.29-.09-.34-.04-.04-.14-.07-.31-.07H2.56c-.11,0-.2.03-.27.08-.07.06-.11.12-.11.2,0,.08.04.21.12.26.08.05.2.08.35.08.23,0,.38.03.47.09.09.06.14.2.17.42.03.22.04.48.04,1.07v5.92c0,.13-.04.25-.11.34-.07.1-.22.17-.45.23-.23.05-.36.1-.41.14-.04.04-.07.09-.07.15,0,.22.13.33.4.33.08,0,.24-.04.5-.11.26-.07.59-.11.99-.11.23,0,.46.03.7.1.24.07.4.1.49.1.17,0,.26-.07.26-.22,0-.08-.03-.15-.08-.22-.05-.06-.21-.13-.47-.21Z" style="fill: #9bb221;"/>
          <path d="M23.24,18.19c.34-.2.51-.36.51-.49,0-.11-.05-.16-.16-.16-.06,0-.18.16-.36.27-.18.11-.35.16-.51.16-.22,0-.4-.05-.53-.15-.13-.1-.21-.23-.24-.39-.03-.16-.04-.42-.04-.77,0-.47-.01-1.26-.02-1.65,0-.22,0-.7,0-.74,0-.03-.03-.16-.2-.14-.18.03-.34.16-.5.27-.14.1-.23.25-.26.42-.01.09-.02.17-.02.32v1.39c-.01.6.02,1.02.09,1.25.07.23.31.45.45.53.27.14.55.18.78.18.34,0,.67-.1,1.01-.29Z" style="fill: #9bb221;"/>
          <path d="M25,14.29c0-.21-.07-.31-.22-.31-.04,0-.12.01-.22.04-.1.03-.2.04-.29.04-.12,0-.28-.01-.47-.04-.19-.03-.32-.04-.39-.04-.22,0-.33.08-.33.24s.15.26.46.31c.31.05.47.19.48.41.01.23.02,1.34.02,3.33,0,.56-.03.98-.1,1.26-.07.28-.21.5-.44.66-.23.16-.46.24-.7.24-.13,0-.25-.02-.35-.06-.1-.04-.17-.06-.21-.06-.05,0-.09.02-.12.06-.03.04-.05.08-.05.11,0,.07.09.15.27.24.18.09.43.13.74.13.37,0,.68-.08.93-.24.25-.16.49-.45.71-.86.22-.41.33-1.09.33-2.05,0-.27,0-.8-.02-1.6-.01-.79-.02-1.39-.02-1.81Z" style="fill: #9bb221;"/>
        </g>
        <path d="M9.57,16.9c-.01.32-.14.57-.39.77-.79.66-2.22.19-2.17-.94-.04-.88.96-1.38,1.71-1.02.59.34.91-.19.21-.48-1.69-.75-3.83.84-2.72,2.55.42.59,1.05.82,1.69.82.57,0,1.35-.12,1.99-.74.09.13.2.25.33.35.05.04.1.07.15.11.28.18.61.29.96.29s.67-.1.95-.28c.19-.12.36-.28.49-.47.76.75,1.39.73,1.9.75,1.99.04,3.37-2.17,1.75-4.09-.67-.72-1.52-.97-2.46-.53-.33.14-.53.32-.49.5.06.25.44.1.59.05,1.47-.48,2,.57,2,1.69,0,1.46-1.52,2.15-2.47,1.51-.32-.21-.49-.44-.49-.71v-7.47c0-.19-.03-.32-.09-.39-.19-.23-.72,0-.98-.02-.28.02-.72-.22-.99-.04-.16.07-.15.24-.06.35.04.05.17.09.37.12.53.08.68.33.7.91v6.77c0,.4-.32.72-.72.72s-.72-.32-.72-.72v-2.07c0-.39-.17-.72-.51-1-.77-.83-3.75-.27-3.06.53.18.11.28.12.5-.04.52-.36,1.29-.53,1.77-.11.17.16.26.3.26.56v1.73s0,.03,0,.05" style="fill: #9bb221;"/>
      </g>
    </g>
  </g>
</svg>