<?xml version="1.0" encoding="UTF-8"?>
<svg id="Ebene_1" data-name="Ebene 1" xmlns="http://www.w3.org/2000/svg" xmlns:xlink="http://www.w3.org/1999/xlink" viewBox="0 0 563.76 278.02">
  <defs>
    <style>
      .cls-1 {
        fill: #395824;
      }

      .cls-2 {
        fill: url(#Verlauf_Fabry);
      }
    </style>
    <linearGradient id="Verlauf_Fabry" data-name="Verlauf Fabry" x1="330.55" y1="207.78" x2="462.64" y2="-20.99" gradientUnits="userSpaceOnUse">
      <stop offset=".5" stop-color="#395824"/>
      <stop offset="1" stop-color="#9bb221"/>
    </linearGradient>
  </defs>
  <g>
    <path class="cls-1" d="M101.46,264.97c1.62-.74,3.05-2.5,3.05-5.2,0-3.12-2.2-6.14-8-6.14h-10.48v23.99h10.84c5.1,0,8.33-3.08,8.33-7.18,0-3.15-2.12-4.86-3.74-5.47ZM91.12,257.63h4.94c2,0,3.33.91,3.33,2.66s-1.02,2.79-3.48,2.79h-4.79v-5.46ZM95.8,273.61h-4.68v-6.51h4.65c2.85,0,4.1,1.23,4.1,3.17,0,2.17-1.27,3.35-4.07,3.35Z"/>
    <path class="cls-1" d="M125.87,253.63l-8.15,23.99h5.1l1.87-5.54h8.76l1.97,5.54h5.45l-8.5-23.99h-6.52ZM125.78,267.82c1.37-4.33,2.56-8.09,3.16-10.45h.03c.58,2.16,1.66,5.39,3.37,10.45h-6.56Z"/>
    <path class="cls-1" d="M168.77,267.92c0,4.35-1.86,5.97-4.83,5.97-2.59,0-4.95-1.36-4.95-5.97v-14.29h-5.2v14.14c0,8.01,4.67,10.19,10.08,10.19s10.09-2.09,10.09-10.29v-14.04h-5.19v14.29Z"/>
    <path class="cls-1" d="M202.8,271.33h-.04c-.72-3.58-2.82-11.44-4.69-17.71h-7.72v23.99h4.73v-8.59c0-4.11-.1-9.05-.3-11.87h.16c1.05,4.79,3.53,13.9,5.28,20.46h4.42c2.3-7.51,4.7-15.5,5.83-20.39h.17c-.1,2.71-.17,7.3-.17,11.39v9h5v-23.99h-7.44c-2,6.15-4.64,14.55-5.22,17.71Z"/>
    <path class="cls-1" d="M242.05,253.63h-9.92v23.99h5.19v-8.96h4.61c4.73,0,8.68-2.39,8.68-7.6,0-4.56-3.46-7.43-8.56-7.43ZM241.28,264.53h-3.96v-6.77h4.07c2.2,0,3.99.93,3.99,3.4s-1.7,3.37-4.1,3.37Z"/>
    <polygon class="cls-1" points="265.18 277.62 270.24 277.62 270.24 268.01 281.18 268.01 281.18 263.76 270.24 263.76 270.24 257.88 281.92 257.88 281.92 253.63 265.18 253.63 265.18 277.62"/>
    <polygon class="cls-1" points="301.83 253.63 296.64 253.63 296.64 277.62 313.18 277.62 313.78 273.36 301.83 273.36 301.83 253.63"/>
    <polygon class="cls-1" points="332.93 267.27 344.4 267.27 344.4 263.02 332.93 263.02 332.93 257.88 344.91 257.88 344.91 253.63 327.89 253.63 327.89 277.62 344.97 277.62 345.59 273.36 332.93 273.36 332.93 267.27"/>
    <path class="cls-1" d="M371,257.35c3.51,0,4.78,1.9,5.27,3.51h5.19c-.58-4.09-4.21-7.57-10.39-7.57-7.56,0-11.76,5.43-11.76,12.64,0,6.83,3.89,12.1,10.85,12.1,3.33,0,5.68-.97,7.01-2.77.07.8.2,1.63.4,2.37h3.8v-13.42h-10.35v4.25h5.26v.22c0,2.15-.82,5.23-5.25,5.23-4.76,0-6.36-4.07-6.36-8.19s1.41-8.35,6.33-8.35Z"/>
    <polygon class="cls-1" points="402.71 267.27 414.18 267.27 414.18 263.02 402.71 263.02 402.71 257.88 414.68 257.88 414.68 253.63 397.67 253.63 397.67 277.62 414.75 277.62 415.36 273.36 402.71 273.36 402.71 267.27"/>
    <path class="cls-2" d="M521.63,18.08c-17.36-1.79-25.24,3.37-33.59,8.83l-.23.15c-8.38-11.79-24.96-18.23-38.82-18.58-13.32-.33-21.35,1.37-36.34,8.1C400.89,5.44,384.01-.82,367.62.09c-16.78.92-33.19,9.36-43.55,22.23-6.54-.79-20.83-1.64-29.61,2.68-2.72,1.34-5.26,3.28-7.54,5.79-3.42,3.74-4.27,8.95-2.22,13.59,2.05,4.64,6.46,7.52,11.53,7.52h0c15.13-.01,41.25-.13,64.3-.24,19.93-.09,38.75-.18,47.11-.18,18.26,0,26.61,4.61,30.39,8.47,3.79,3.87,3.9,7.9,3.88,8.67,0,.09,0,.18,0,.27v.02c.03,1.37-.81,2.06-1.32,2.35-.42.24-1.54.73-2.82-.05-1.04-.63-3.12-1.69-10.02-4.29-6.32-2.38-12.94-3.59-19.69-3.59h-47.99c-5.18,0-9.44,2.16-11.69,5.93-2.23,3.72-2.13,8.43.27,12.9.33.62.68,1.16,1.07,1.65,7.66,9.69,19.79,8.96,22.4,8.68l29.32-.26c1.04,0,2.09.05,3.12.17,6.14.71,11.4,2.22,13.73,3.94,1.11.82,1.96,3.71-4.78,13.94-.46.7-.82,1.25-1.1,1.72-5.37,9.23-14.24,18.03-20.91,23.92-.5-18.18-8.92-14.96-21.07-13.47-2.03.11-10.89-1.63-12.95-1.5-6.09-.31-8.87,3.93-5.96,8.08,7.41,5.05,17.14,3.02,17.34,16.3-.6,8.71,1.54,53.13-1.5,59.55-2.27,4.3-18.07,5.28-17.56,11.44.26,4.25,5.05,5.63,9.33,5.64,4.09-.39,13.95-3.06,19.11-2.7,9.05-.38,19.98,2.55,27.68,2.7,5.67.41,6.78-5.51,3.31-8.68-1.3-1.22-4.15-2.35-8.56-3.39-8.89-2.34-9.81-3.62-10.06-12.61.02-3.22.13-9.67.27-17.17.78-10.04,3.62-19.08,8.66-27.57,5.25-8.84,11.45-13.67,23.81-23.29l.46-.36c8.89-6.92,15.34-10.72,21.04-14.08,8.2-4.84,14.68-8.66,22.89-18.51l.33-.4c1.25-1.52,3.34-4.06,6.91-6.19,4.42-2.63,9.81-3.83,16-3.56.06,0,.13,0,.19,0l22.4.22s.04,0,.05,0c7.55,0,13.72-3.2,16.92-8.77,2.08-3.62,2.56-7.73,1.45-11.51,2.95-.01,5.87-.03,8.58-.05,3.38-.02,6.47-.04,8.95-.04,10.02,0,13.9-6.05,14.19-11.72.72-13.96-18.97-33.79-42.11-36.17ZM552.38,54.13c-.14.14-.95.53-2.83.53-2.5,0-5.67.02-9.02.04-8.09.05-18.01.12-24.96-.06-.64-.04-1.28-.06-1.95-.05-3.08.02-5.57,2.5-5.62,5.58-.04,3.08,2.38,5.62,5.46,5.73.51.02,1.04.03,1.59.05,2.84.21,4.96,1.15,5.82,2.62.59,1.01.55,2.24-.1,3.38-1.13,1.96-3.71,3.09-7.09,3.1l-22.28-.22c-8.39-.35-15.85,1.38-22.17,5.14-5.27,3.13-8.37,6.91-9.87,8.72l-.29.35c-6.96,8.35-12.13,11.4-19.95,16.01-4.1,2.42-8.92,5.26-14.84,9.42,1.62-2.55,3.67-6.09,4.91-9.81,3.34-10.02-1.18-15.21-4.18-17.42-5.13-3.78-13.24-5.38-19.14-6.07-1.39-.16-2.8-.24-4.2-.24-.11,0-.22,0-.32,0l-29.63.27c-.27,0-.51.02-.77.06-.08.01-7.95,1.03-12.3-4.39,0-.01-.01-.02-.02-.04-.52-.97-.56-1.57-.53-1.75.14-.12.74-.43,1.98-.43h47.99c5.38,0,10.66.96,15.7,2.86,6.61,2.49,8.01,3.3,8.14,3.38,4.4,2.67,9.9,2.74,14.34.17,4.45-2.57,7.05-7.17,6.97-12.34.03-2.36-.47-9.9-7.11-16.69-7.71-7.88-20.66-11.87-38.47-11.87-8.38,0-27.22.09-47.16.18-23.04.11-49.15.23-64.26.24h0c-.56,0-.96-.26-1.19-.77-.23-.51-.15-.98.23-1.4,1.33-1.46,2.74-2.55,4.18-3.27,6.79-3.34,22.22-2.03,25.23-1.32,2.57.61,5.22-.37,6.74-2.51,8.23-11.5,22.34-19.14,36.81-19.93,14.48-.8,29.41,5.25,38.96,15.79,1.67,1.84,4.34,2.38,6.58,1.33,16.82-7.85,23.17-9.01,34.92-8.71,12.21.31,27.48,6.91,31.9,17.42.63,1.51,1.89,2.67,3.45,3.18,1.56.51,3.26.32,4.66-.52,2-1.19,3.79-2.36,5.52-3.49,7.75-5.07,12.87-8.42,26.24-7.05,14.07,1.45,25.99,10.9,30.49,19.48,1.74,3.31,1.54,5.08,1.41,5.31Z"/>
    <path class="cls-1" d="M68.66,206.53c-6.06-1.75-10.06-4.1-12.01-7.04-1.95-2.95-2.93-6.37-2.93-10.27v-91.53c0-2.9.85-5.1,2.56-6.6,1.7-1.5,5.07-2.25,10.08-2.25h39.87c8.62,0,11.2.56,11.2,7.76,0,3,.19,4.94,1.44,6.69,1.25,1.75,2.78,2.63,4.58,2.63,1.7,0,4.43-.67,5.58-2.02,1.15-1.35,1.97-3.13,1.73-5.31-.08-.7.18.04-.32-4.15-.5-4.19-.32-8.18-.32-11.97,0-2.5.15-5.71.45-9.65.3-3.94.45-3.91.45-6.01s-.6-3.48-1.8-4.73c-1.2-1.25-3.96-1.87-5.66-1.87-1.6,0-2.95.5-4.05,1.5-1.1,1-1.65,2.35-1.65,4.05,0,3.51.6,5.12-1.11,7.77-1.7,2.65-5.62,1.95-8.82,1.95h-38.71c-7.32,0-11.94-1.4-13.84-4.19-1.9-2.79-2.86-7.54-2.86-14.23v-28.09c0-3.89,1.1-6.81,3.31-8.76,2.2-1.95,6.87-2.92,13.99-2.92h41.21c2,0,3.83.7,5.49,2.09,1.65,1.39,3.31,4.39,4.96,9.01,1.65,4.62,3.01,7.45,4.06,8.5,1.05,1.04,2.18,1.56,3.38,1.56,4.9,0,7.35-3,7.35-9,0-1.9-.28-4.38-.83-7.43-.55-3.05-1.08-6.25-1.58-9.61-.5-3.35-1.2-6.86-2.1-7.91-.9-1.05-3.3-1.58-7.2-1.58H9c-2.6,0-4.75.66-6.45,1.98C.85,6.23,0,7.79,0,9.61c0,1.92.98,4.82,2.93,6.09,1.95,1.27,4.73,1.9,8.33,1.9,5.3,0,8.95.67,10.96,2.02,2,1.35,3.33,4.64,3.98,9.88.65,5.24.98,11.31.98,25.18v139.2c0,3.09-.88,5.79-2.63,8.09-1.75,2.3-5.28,4.07-10.58,5.31-5.3,1.25-8.48,2.38-9.53,3.39-1.05,1.01-1.57,2.18-1.57,3.49,0,5.16,3.09,7.74,9.29,7.74,1.8,0,5.74-.82,11.83-2.48,6.09-1.65,13.88-2.48,23.37-2.48,5.39,0,10.91.78,16.55,2.33,5.64,1.55,9.46,2.33,11.46,2.33,4.09,0,6.14-1.72,6.14-5.17,0-1.92-.63-3.62-1.88-5.09-1.25-1.47-4.9-3.08-10.96-4.83Z"/>
    <path class="cls-1" d="M495.03,215.18c7.99-4.6,11.98-8.45,11.98-11.56,0-2.5-1.29-3.75-3.88-3.75-1.39,0-4.17,3.86-8.35,6.36-4.17,2.5-8.2,3.75-12.07,3.75-5.17,0-9.32-1.17-12.45-3.52-3.13-2.35-4.99-5.39-5.59-9.14-.6-3.74-.89-9.81-.89-18.2,0-10.99-.31-29.7-.38-38.72-.04-5.21-.02-16.55-.17-17.35-.15-.8-.7-3.87-4.73-3.3-4.12.59-8,3.7-11.75,6.3-3.29,2.29-5.47,5.85-6,9.82-.29,2.14-.55,3.89-.55,7.54l-.3,32.73c0,14.19.77,24,2.32,29.45,1.55,5.45,7.34,10.67,10.66,12.37,6.39,3.28,12.93,4.13,18.32,4.13,7.89,0,15.82-2.3,23.81-6.91Z"/>
    <path class="cls-1" d="M536.43,123.62c0-4.9-1.76-7.35-5.27-7.35-1,0-2.71.3-5.12.9-2.41.6-4.72.9-6.92.9-2.91,0-6.6-.3-11.07-.9-4.47-.6-7.55-.9-9.26-.9-5.12,0-7.68,1.87-7.68,5.63s3.6,6.05,10.81,7.2c7.2,1.15,10.93,4.37,11.18,9.66.25,5.29.38,31.4.38,78.33,0,13.08-.78,22.92-2.33,29.5-1.55,6.59-5,11.76-10.35,15.5-5.35,3.74-10.83,5.62-16.44,5.62-3.1,0-5.88-.5-8.33-1.5-2.45-1-4.08-1.5-4.88-1.5-1.1,0-2.05.48-2.85,1.43-.8.95-1.2,1.82-1.2,2.63,0,1.7,2.13,3.6,6.39,5.7,4.26,2.1,10.05,3.15,17.37,3.15,8.62,0,15.92-1.9,21.88-5.7,5.97-3.8,11.56-10.53,16.77-20.19,5.21-9.66,7.82-25.69,7.82-48.1,0-6.4-.15-18.91-.45-37.52-.3-18.61-.45-32.77-.45-42.48Z"/>
  </g>
  <path class="cls-1" d="M173.77,184.82c-.29,7.46-3.35,13.48-9.21,18.05-18.56,15.62-52.06,4.57-50.96-21.98-.87-20.74,22.53-32.33,40.22-23.94,13.87,7.96,21.46-4.57,4.89-11.33-39.66-17.59-89.94,19.75-63.88,59.88,9.9,13.75,24.59,19.34,39.82,19.33,13.44,0,31.74-2.9,46.76-17.48,2.18,3.06,4.77,5.82,7.69,8.19,1.12.91,2.28,1.76,3.49,2.54,6.52,4.25,14.3,6.72,22.66,6.72s15.84-2.37,22.27-6.48c4.55-2.9,8.5-6.66,11.61-11.06,17.88,17.54,32.69,17.26,44.62,17.52,46.8,1.04,79.09-51.03,41.06-96.11-15.84-16.84-35.65-22.87-57.88-12.54-7.69,3.41-12.53,7.47-11.54,11.86,1.33,5.85,10.26,2.37,13.86,1.2,34.51-11.22,47.01,13.3,47.04,39.78.05,34.2-35.82,50.63-58.08,35.5-7.64-4.85-11.46-10.38-11.46-16.59V12.3c0-4.51-.7-7.58-2.1-9.24-4.5-5.38-16.98-.23-22.92-.53-6.5.39-17.04-5.12-23.19-.95-3.69,1.76-3.58,5.62-1.44,8.21.99,1.17,3.91,2.1,8.73,2.8,12.53,1.77,15.99,7.78,16.35,21.28v159.16c0,9.37-7.6,16.98-16.98,16.98s-16.98-7.6-16.98-16.98v-48.65c0-9.09-4-16.93-12.01-23.52-18.12-19.52-88.12-6.39-71.9,12.54,4.26,2.6,6.67,2.73,11.83-.97,12.33-8.36,30.36-12.46,41.55-2.55,4.04,3.8,6.06,7.02,6.06,13.12v40.67c0,.39,0,.78-.02,1.17"/>
</svg>